<svg xmlns="http://www.w3.org/2000/svg" width="350" height="340"><linearGradient id="grad1" x1="0%" y1="0%" x2="100%" y2="0%"><stop offset="30%" style="stop-color:#645e9d;stop-opacity:1" /><stop offset="100%" style="stop-color:#c4a9d0;stop-opacity:1" /></linearGradient><path fill="url(#grad1)" d="M316.96356834984,288.74131135711974C313.95513296523256,304.78349326886536,273.92589605548756,312.8167643495601,253.9573140004766,316.2530914704738C233.98873194546564,319.6894185913875,214.74857029216633,313.54892649728976,197.15207601977428,309.3592740826018C179.55558174738223,305.1696216679139,165.16879705194364,300.44952029032555,148.37834836612427,291.11517698234604C131.5878996803049,281.78083367436653,101.87543298271757,269.82634546246425,96.4093839048581,253.3532142347249C90.94333482699864,236.8800830069856,107.05224336972054,209.8397590672965,115.58205389896752,192.27638961591012C124.11186442821449,174.71302016452373,134.62230757954964,162.62084565978208,147.5882470803399,147.97299752640657C160.55418658113015,133.32514939303107,177.5469297233805,104.27221941547263,193.3776909037091,104.38930081565704C209.2084520840377,104.50638221584144,223.12576755035977,140.12447580769478,242.57281416231157,148.67548592751297C262.0198607742634,157.22649604733115,305.15411855111836,143.807942522485,310.0599705754199,155.6953615345662C314.9658225997215,167.58278054664737,270.857326679051,197.8256750295744,272.00792630812106,220C273.1585259371911,242.1743249704256,319.9720037344474,272.6991294453741,316.96356834984,288.74131135711974" stroke="none" stroke-width="3"/></svg>