<svg xmlns="http://www.w3.org/2000/svg" width="360" height="340"><linearGradient id="grad1" x1="0%" y1="0%" x2="100%" y2="0%"><stop offset="30%" style="stop-color:#645e9d;stop-opacity:1" /><stop offset="100%" style="stop-color:#c4a9d0;stop-opacity:1" /></linearGradient><path fill="url(#grad1)" d="M315.9276997027578,288.07559900016787C301.9496985955439,303.0818362179234,271.50729299350394,302.3682267366444,251.11871346275862,310.0374233065331C230.73013393201327,317.7066198764219,209.07282817866985,339.1449814063419,193.59622251828574,334.09077841950034C178.11961685790163,329.03657543265876,175.71966774445355,292.7976798891911,158.25907950045396,279.7122053854837C140.79849125645438,266.62673088177627,93.8519859660912,269.53584717417374,88.83269305428828,255.57793139725592C83.81340014248536,241.62001562033814,115.01218756597314,210.04598336683722,128.14332202963647,195.96471072397694C141.2744564932998,181.88343808111665,155.57693637112274,178.21416210918278,167.61949983626826,171.0902955400943C179.66206330141378,163.96642897100583,187.72747171256714,157.34929463202457,200.39870282050953,153.2215113094461C213.06993392845192,149.09372798686763,229.6807799953155,143.1409226281606,243.64688648392266,146.3235956046235C257.6129929725298,149.5062685810864,268.97203614846586,160.03814843566067,284.19534175215244,172.31754916822342C299.418647355839,184.59694990078617,329.69799378094115,200.70699169467593,334.98672010604207,220C340.275446431143,239.29300830532407,329.90570080997173,273.06936178241233,315.9276997027578,288.07559900016787" stroke="none" stroke-width="3"/></svg>